<?xml version="1.0" encoding="utf-8"?>
<!-- Generator: Adobe Illustrator 25.4.1, SVG Export Plug-In . SVG Version: 6.00 Build 0)  -->
<svg version="1.1" id="Capa_1" xmlns="http://www.w3.org/2000/svg" xmlns:xlink="http://www.w3.org/1999/xlink" x="0px" y="0px"
	 viewBox="0 0 200 200" style="enable-background:new 0 0 200 200;" xml:space="preserve">
<style type="text/css">
	.st0{fill:url(#SVGID_1_);}
	.st1{fill:url(#SVGID_00000000936977025035030220000016796792756462033291_);}
	.st2{fill:url(#SVGID_00000007417624731238266080000016522077874851150013_);}
	.st3{fill:url(#SVGID_00000125563550699159162400000015067376700836240827_);}
</style>
<linearGradient id="SVGID_1_" gradientUnits="userSpaceOnUse" x1="21.4134" y1="240.0431" x2="159.3146" y2="203.0945" gradientTransform="matrix(1 0 0 1 0 -140)">
	<stop  offset="0.2" style="stop-color:#FF5800"/>
	<stop  offset="0.24" style="stop-color:#FF7000"/>
	<stop  offset="0.32" style="stop-color:#FF9500"/>
	<stop  offset="0.4" style="stop-color:#FFB200"/>
	<stop  offset="0.47" style="stop-color:#FFC600"/>
	<stop  offset="0.55" style="stop-color:#FFD300"/>
	<stop  offset="0.62" style="stop-color:#FFD700"/>
	<stop  offset="0.66" style="stop-color:#FFCE00"/>
	<stop  offset="0.72" style="stop-color:#FFB600"/>
	<stop  offset="0.81" style="stop-color:#FF8E00"/>
	<stop  offset="0.9" style="stop-color:#FF5800"/>
</linearGradient>
<path class="st0" d="M62.98,61.44c-4.6,9-8.4,16.2-11.3,21.6c-2.4,4.5-5,8.9-7.9,13.1c-2.2,3.1-4.7,5.9-7.7,8.2
	c-3.3,2.5-6.7,4.9-10.3,7l-2.3-3.6c2.6-1.9,5-3.8,7.1-5.7c2.5-2.4,4.8-5,6.7-7.9c3-4.3,5.8-8.9,8.4-13.5c3.2-5.6,7.1-13.2,11.7-22.8
	c2.8-5.9,5.9-11.6,9.5-17c2.5-3.8,5.4-7.3,8.7-10.4c2.4-2.2,5.1-4,8.1-5.2c2.5-1,5.2-1.4,7.9-1.4c2.6,0.1,5.2,0.8,7.6,1.9
	c3.2,1.7,6,4.1,8.2,6.9c3.8,4.6,7.1,9.5,10,14.7c3.7,6.4,8,14.8,13.1,25.3c2.7,5.8,5.8,11.4,9.2,16.8c2.5,4.1,5.5,7.8,8.9,11.2
	c2.9,2.9,6.3,5.3,10,7.1c4,2,8.1,3.6,12.4,4.8l2.9,4.9c-5.1-0.5-10.2-1.6-15-3.3c-4.5-1.6-8.7-4.1-12.3-7.2
	c-4.2-3.7-7.9-7.9-11-12.5c-4.1-6.1-7.8-12.6-11-19.2c-4.7-9.3-8.6-17-11.8-22.8c-2.5-4.7-5.4-9.3-8.6-13.6
	c-1.8-2.6-4.1-4.8-6.7-6.6c-1.8-1.1-3.9-1.7-6-1.8c-2.2-0.1-4.3,0.4-6.3,1.3c-2.5,1.2-4.6,3-6.4,5.1c-2.7,3-5.1,6.2-7.2,9.6
	C68.78,50.44,65.98,55.44,62.98,61.44z"/>
<linearGradient id="SVGID_00000111908739180235719630000008571190650627229359_" gradientUnits="userSpaceOnUse" x1="26.3761" y1="252.9656" x2="170.5761" y2="252.9656" gradientTransform="matrix(1 0 0 1 0 -140)">
	<stop  offset="0.09" style="stop-color:#FF5800"/>
	<stop  offset="0.19" style="stop-color:#FF7907"/>
	<stop  offset="0.31" style="stop-color:#FF990E"/>
	<stop  offset="0.4" style="stop-color:#FFAD12"/>
	<stop  offset="0.47" style="stop-color:#FFB414"/>
	<stop  offset="0.53" style="stop-color:#FFAD12"/>
	<stop  offset="0.62" style="stop-color:#FF980E"/>
	<stop  offset="0.73" style="stop-color:#FF7707"/>
	<stop  offset="0.82" style="stop-color:#FF5800"/>
</linearGradient>
<path style="fill:url(#SVGID_00000111908739180235719630000008571190650627229359_);" d="M131.88,120.54c6.8,0.2,13.5-0.1,20.3-1
	c6-0.8,12-2.2,17.7-4.1l0.7,3.7c-9.2,5.9-22.2,8.5-38.9,8c-6.6-0.1-13.1-1-19.5-2.6c-5-1.3-9.9-3.1-14.6-5.3c-3.2-1.5-6.3-3-9.1-4.6
	c-2.9-1.6-5.8-3-8.9-4.4c-3-1.3-6-2.4-9.1-3.4c-3.2-0.9-6.6-1.5-10-1.6c-5.3-0.2-10.7,0.2-15.9,1.2c-5.4,1-10.7,2.4-15.9,4.4
	l-2.3-2.7l4.3-2.1c4.5-2.5,9.3-4.4,14.3-5.6c5.1-1.3,10.4-1.8,15.7-1.7c3.8,0.1,7.5,0.6,11.2,1.6c3.3,0.9,6.6,2.1,9.7,3.5
	c3,1.4,6.1,2.9,9.1,4.6s6.2,3.2,9.5,4.7c4.4,2,8.9,3.6,13.6,4.9C119.68,119.64,125.78,120.54,131.88,120.54z"/>
<linearGradient id="SVGID_00000045617041120129547670000007825634048442842785_" gradientUnits="userSpaceOnUse" x1="27.0194" y1="231.5387" x2="174.7133" y2="262.9249" gradientTransform="matrix(1 0 0 1 0 -140)">
	<stop  offset="0.5" style="stop-color:#FF5800"/>
	<stop  offset="0.64" style="stop-color:#CE056A;stop-opacity:0.99"/>
	<stop  offset="0.76" style="stop-color:#CF0768;stop-opacity:0.99"/>
	<stop  offset="0.81" style="stop-color:#D20D60;stop-opacity:0.99"/>
	<stop  offset="0.85" style="stop-color:#D81753;stop-opacity:0.99"/>
	<stop  offset="0.88" style="stop-color:#E12541;stop-opacity:0.99"/>
	<stop  offset="0.91" style="stop-color:#EC3829"/>
	<stop  offset="0.94" style="stop-color:#F94E0C"/>
	<stop  offset="0.95" style="stop-color:#FF5800"/>
</linearGradient>
<path style="fill:url(#SVGID_00000045617041120129547670000007825634048442842785_);" d="M141.68,71.04c-2.4-0.1-4.8,0.5-6.9,1.7
	c-2.9,1.8-5.5,4.1-7.6,6.7c-3.6,4.3-7,8.8-10.1,13.5c-3.8,5.7-8.6,13.2-14.3,22.3c-7.7,12.4-14.9,21.4-21.5,26.9s-13.5,8.2-20.8,7.9
	c-7.7-0.3-14.9-4.1-21.6-11.5c-6.8-7.4-11.9-17.7-15.3-30.8l6.4,1.2c3.5,10.4,8,18.7,13.5,24.9c5.4,6.2,11.2,9.4,17.3,9.6
	c5.7,0.2,11.4-2.2,17.1-7.1c5.8-4.9,12.2-13,19.1-24.2c6.3-10,11.6-18.2,15.8-24.5c3.4-5.1,7.1-10,11.2-14.6c2.5-2.9,5.5-5.3,8.9-7
	c2.8-1.2,5.9-1.8,8.9-1.6c7.3,0.3,13.7,4.6,19.4,13c5.6,8.4,10.6,21.3,15,38.6l-7-2.9c-4.4-14.3-8.8-24.9-13.2-31.8
	C151.58,74.74,146.78,71.24,141.68,71.04z"/>
<linearGradient id="SVGID_00000141420524256189081260000014979041871278519214_" gradientUnits="userSpaceOnUse" x1="33.1062" y1="287.7201" x2="177.828" y2="267.3872" gradientTransform="matrix(1 0 0 1 0 -140)">
	<stop  offset="0" style="stop-color:#FF5800"/>
	<stop  offset="0.06" style="stop-color:#FC5400"/>
	<stop  offset="0.13" style="stop-color:#F54700"/>
	<stop  offset="0.19" style="stop-color:#E83300"/>
	<stop  offset="0.26" style="stop-color:#D61600"/>
	<stop  offset="0.3" style="stop-color:#C80000"/>
	<stop  offset="0.48" style="stop-color:#C80000"/>
	<stop  offset="0.91" style="stop-color:#FF5800"/>
</linearGradient>
<path style="fill:url(#SVGID_00000141420524256189081260000014979041871278519214_);" d="M117.08,168.74c3.6,0,7.2-1.2,10-3.4
	c3.3-2.4,7.5-7,12.6-13.6c4-5.1,7.2-9.4,9.7-12.7s4.9-6.3,7.2-8.9c2.2-2.6,4.6-5,6.9-7.4c2.4-2.3,5.3-5.2,8.8-8.6l4,2.2
	c-3.2,3.7-5.9,6.8-8.1,9.3c-2.2,2.6-4.3,5.2-6.4,7.9c-2.1,2.7-4.4,5.7-7,9.1s-5.8,7.7-9.8,12.9c-5.4,7.2-10.2,12.4-14.4,15.4
	c-4,3-8.8,4.5-13.8,4.3c-2.5-0.1-5-0.5-7.3-1.4c-2.8-1.2-5.3-2.8-7.6-4.7c-3.6-3-7-6.3-10.2-9.9c-3.9-4.3-8.8-9.8-14.8-16.6
	c-4.5-5.2-8.6-9.5-12.3-13c-3.3-3.2-7-6.1-10.9-8.5c-3.6-2.1-7.4-3.8-11.4-5.1c-4.6-1.3-9.3-2.2-14-2.7l1.6-4.8
	c4.9,0.4,9.8,1.1,14.7,2.1c4.3,0.9,8.4,2.5,12.2,4.7c4.2,2.4,8.1,5.3,11.6,8.6c4.6,4.3,9,8.9,13.1,13.8c6,6.8,10.8,12.3,14.6,16.3
	c3.8,4,6.9,7.2,9.4,9.3c1.9,1.8,4,3.2,6.3,4.3C113.38,168.24,115.18,168.64,117.08,168.74z"/>
</svg>
